<svg version="1.1" id="Layer_1" xmlns="http://www.w3.org/2000/svg" xmlns:xlink="http://www.w3.org/1999/xlink" x="0px" y="0px"
	 viewBox="0 0 742.5 358.2" enable-background="new 0 0 742.5 358.2" xml:space="preserve">
<rect y="273" fill="none" width="714.8" height="81.4"/>
<text transform="matrix(1.2 0 0 1 0 330.1334)" font-family="'HelveticaNeue-UltraLight'" font-size="80" letter-spacing="4.2">brewing project</text>
<path d="M68.8,14.1c36.2,0,65.6,29.4,65.6,65.6c0,13.8-4.2,26.2-11.5,36.8c16.3,12.5,26.6,32,26.6,53.8c0,37.8-30.4,67.8-67.8,67.8
	H7.7v-224H68.8z M66.9,102.7c12.5,0,25.9-10.2,25.9-25.9S79.3,51.5,66.9,51.5H47.3v51.2H66.9z M80.9,200c15,0,27.5-11.8,27.5-26.9
	c0-15-12.5-27.2-27.5-27.2H48.3V200H80.9z"/>
<path d="M196.7,115.8c10.2-13.4,28.5-19.2,46.7-19.2c8,0,16,1.3,23.4,3.8L251.1,136c-23.4-10.2-47,3.8-51.2,25.9v76.2h-40V100.2h31
	L196.7,115.8z"/>
<path d="M384,216.3c-13.1,15.7-33.3,25.6-55.4,25.6c-40.3,0-73.3-33-73.3-73.3c0-40.6,33-73.3,73.3-73.3c40.3,0,73.3,32.6,73.3,73.3
	c0,4.5-0.3,8.6-1.3,13.1h-103c1.9,5.1,4.5,9.6,8,13.4c6.7,7.4,15.4,11.2,24.6,11.2c8.6,0,17.3-3.8,23.7-10.2L384,216.3z
	 M363.2,157.4c-1.6-5.8-4.5-11.2-8.6-15.7c-6.4-7-15.4-10.9-24.3-10.9c-9.3,0-17.9,3.8-24.6,10.9c-3.8,4.5-6.7,9.9-8.6,15.7H363.2z"
	/>
<path d="M563,100.2v137.9h-33.9v-13.4c-12.8,10.9-29.4,17.3-47.4,17.3c-40.6,0-73.3-32.6-73.3-73c0-40.6,32.6-73,73.3-73
	c17.9,0,34.6,6.4,47.4,17.3l3.2-13.1H563z M522.7,169c0-9.9-3.5-19.5-10.6-26.6c-6.7-7-15.7-10.9-25.3-10.9s-18.6,3.8-25.6,10.9
	c-6.7,7-10.6,16.6-10.6,26.6s3.8,19.2,10.6,26.6c7,7,16,10.9,25.6,10.9s18.6-3.8,25.3-10.9C519.2,188.2,522.7,178.9,522.7,169z"/>
<g>
	<path d="M619.2,199.8v38.3h-44.8V0h44.8v144.6l41-44.5h54.7L619.2,199.8z"/>
	<polygon points="672.4,169.7 742.5,254.5 690,254.5 643.9,198.5 	"/>
</g>
</svg>
