
<svg version="1.1" id="Layer_1" xmlns="http://www.w3.org/2000/svg" xmlns:xlink="http://www.w3.org/1999/xlink" x="0px" y="0px"
	 viewBox="0 0 356.8 164.6" enable-background="new 0 0 356.8 164.6" xml:space="preserve">
<path fill="#404040" d="M34.1,78.3H0V0h32.5c16.3,0,25,9.1,25,22.7c0,8.9-6.2,13.9-8.6,15.5c3.2,2,9.7,6,9.7,17
	C58.5,70.2,48.1,78.3,34.1,78.3z M31.2,17.3h-12V30h12c5.3,0,6.9-3.3,6.9-6.4S36.5,17.3,31.2,17.3z M32.2,47.3h-13V61h13
	c5.3,0,7-3.6,7-6.9S37.5,47.3,32.2,47.3z"/>
<path fill="#404040" d="M111.4,78.3L97.6,49.2h-6.5v29.2H71.8V0h31c17.4,0,26.7,12.3,26.7,25.2c0,10.7-6.6,17.4-12.8,20.5l16.9,32.7
	H111.4z M102,17.3H91.1v15.8H102c5.3,0,8.4-3.9,8.4-7.9C110.3,21.1,107.2,17.3,102,17.3z"/>
<path fill="#404040" d="M143.5,78.3V0h53.2v17.2h-34v13.1h29v17.2h-29v13.8h34v17.2H143.5z"/>
<path fill="#404040" d="M254.2,78.3l-3.6-11.7h-24.1l-3.9,11.7h-20.1L231,0h14.8l28.5,78.3H254.2z M238.9,29.7l-7,20.9h13.6
	L238.9,29.7z"/>
<path fill="#404040" d="M301.3,53.8v24.5h-19V0h19v27.7L323.9,0h23.5L301.3,53.8z"/>
<g>
	<path fill="#999999" d="M85.2,124.4H73.3V95.9h11.4c5.6,0,8.8,3.1,8.8,8c0,3.2-2.1,5.2-3.5,5.9c1.7,0.8,3.9,2.6,3.9,6.4
		C93.9,121.5,90.3,124.4,85.2,124.4z M84.3,100.9h-5.4v6.6h5.4c2.4,0,3.7-1.3,3.7-3.3C88,102.2,86.6,100.9,84.3,100.9z M84.6,112.4
		h-5.8v7h5.8c2.5,0,3.7-1.6,3.7-3.5S87.2,112.4,84.6,112.4z"/>
	<path fill="#999999" d="M119.5,124.4L114,113h-4v11.4h-5.6V95.9h11.2c5.8,0,9.2,4,9.2,8.7c0,4-2.4,6.5-5.2,7.5l6.4,12.3H119.5z
		 M115.2,100.9H110v7.5h5.2c2.4,0,4-1.6,4-3.8C119.2,102.4,117.6,100.9,115.2,100.9z"/>
	<path fill="#999999" d="M135.4,124.4V95.9h18.8v5h-13.2v6.7h11.2v5h-11.2v6.9h13.2v5H135.4z"/>
	<path fill="#999999" d="M188.6,124.4H184l-5.2-17.3l-5.2,17.3h-4.6l-7.6-28.5h5.8l4.4,18l5.2-18h4.2l5.2,18l4.4-18h5.8L188.6,124.4
		z"/>
	<path fill="#999999" d="M204.6,124.4V95.9h5.6v28.5H204.6z"/>
	<path fill="#999999" d="M238.5,124.4l-11.3-17.5v17.5h-5.6V95.9h5l11.3,17.4V95.9h5.6v28.5H238.5z"/>
	<path fill="#999999" d="M272.4,121.4c-2.4,2.5-5,3.2-8,3.2c-3.2,0-5.6-1.1-7.6-3c-2.8-2.8-2.9-6-2.9-11.5c0-5.4,0-8.6,2.9-11.5
		c2-1.9,4.4-3,7.6-3c6.6,0,10,4.3,10.7,9.1h-5.6c-0.6-2.7-2.3-4.2-5.1-4.2c-1.5,0-2.7,0.6-3.6,1.5c-1,1.2-1.4,2.6-1.4,8
		c0,5.4,0.3,6.8,1.4,8c0.8,0.9,2,1.5,3.6,1.5c1.7,0,3.1-0.6,4-1.6c0.9-1,1.3-2.3,1.3-3.8v-1h-5.2v-4.7h10.8v4.2
		C275.2,116.8,274.5,119.2,272.4,121.4z"/>
	<path fill="#999999" d="M90.1,153.7h-5.5v10.7h-5.6v-28.5h11c5.9,0,9.4,4,9.4,8.9S96.1,153.7,90.1,153.7z M89.9,140.9h-5.2v7.8h5.2
		c2.5,0,4.1-1.6,4.1-3.9S92.4,140.9,89.9,140.9z"/>
	<path fill="#999999" d="M124.1,164.4l-5.6-11.4h-4v11.4H109v-28.5h11.2c5.8,0,9.2,4,9.2,8.7c0,4-2.4,6.5-5.2,7.5l6.4,12.3H124.1z
		 M119.8,140.9h-5.2v7.5h5.2c2.4,0,4-1.6,4-3.8C123.9,142.4,122.3,140.9,119.8,140.9z"/>
	<path fill="#999999" d="M156.7,161.6c-1.9,1.9-4.3,3-7.6,3s-5.7-1.1-7.6-3c-2.8-2.8-2.9-6-2.9-11.5c0-5.4,0-8.6,2.9-11.5
		c1.9-1.9,4.4-3,7.6-3s5.7,1.1,7.6,3c2.8,2.8,2.9,6,2.9,11.5C159.7,155.6,159.6,158.8,156.7,161.6z M152.7,142.2
		c-0.8-0.9-2-1.5-3.6-1.5s-2.8,0.6-3.6,1.5c-1,1.2-1.4,2.6-1.4,8c0,5.4,0.3,6.8,1.4,8c0.8,0.9,2.1,1.6,3.6,1.6s2.8-0.6,3.6-1.6
		c1-1.2,1.4-2.5,1.4-8C154.1,144.7,153.7,143.4,152.7,142.2z"/>
	<path fill="#999999" d="M172.9,164.6c-3.1,0-5.2-0.8-7.3-2.9l3.7-3.6c0.9,0.9,1.8,1.6,3.6,1.6c2.7,0,4.5-1.6,4.5-4.9v-18.9h5.6V155
		C182.9,161.3,178.1,164.6,172.9,164.6z"/>
	<path fill="#999999" d="M194,164.4v-28.5h18.8v5h-13.2v6.7h11.2v5h-11.2v6.9h13.2v5H194z"/>
	<path fill="#999999" d="M232.5,164.6c-3.3,0-5.7-1.1-7.6-3c-2.8-2.8-2.9-6-2.9-11.5c0-5.4,0-8.6,2.9-11.5c2-1.9,4.4-3,7.6-3
		c5.3,0,9.4,3,10.4,9h-5.7c-0.6-2.3-2-4-4.8-4c-1.5,0-2.8,0.6-3.6,1.5c-1,1.2-1.4,2.6-1.4,8c0,5.4,0.4,6.8,1.4,8
		c0.8,0.9,2,1.5,3.6,1.5c2.8,0,4.2-1.7,4.8-4h5.6C241.9,161.6,237.8,164.6,232.5,164.6z"/>
	<path fill="#999999" d="M263.1,140.9v23.5h-5.6v-23.5h-7.4v-5h20.4v5H263.1z"/>
</g>
<polygon fill="#E47125" points="329.2,44.5 356.8,91.2 334.3,91.2 316.3,59.1 "/>
</svg>
