
<svg version="1.1" id="Layer_1" xmlns="http://www.w3.org/2000/svg" xmlns:xlink="http://www.w3.org/1999/xlink" x="0px" y="0px"
	 viewBox="0 0 412.5 188.9" enable-background="new 0 0 412.5 188.9" xml:space="preserve">
<g>
	<path fill="#404040" d="M39.9,91.5H0V0h37.9c19,0,29.2,10.7,29.2,26.5c0,10.4-7.2,16.2-10,18.1c3.7,2.3,11.3,7.1,11.3,19.9
		C68.4,82,56.2,91.5,39.9,91.5z M36.5,20.2h-14v14.9h14c6.2,0,8.1-3.9,8.1-7.5S42.7,20.2,36.5,20.2z M37.7,55.3H22.5v16.1h15.2
		c6.2,0,8.2-4.2,8.2-8.1S43.8,55.3,37.7,55.3z"/>
	<path fill="#404040" d="M130.2,91.5L114,57.5h-7.6v34.1H83.9V0h36.3c20.3,0,31.2,14.4,31.2,29.4c0,12.5-7.7,20.3-14.9,23.9
		l19.8,38.2H130.2z M119.2,20.2h-12.7v18.5h12.7c6.2,0,9.8-4.5,9.8-9.3C128.9,24.7,125.3,20.2,119.2,20.2z"/>
	<path fill="#404040" d="M167.8,91.5V0H230v20.1h-39.7v15.3h33.9v20.1h-33.9v16.1H230v20.1H167.8z"/>
	<path fill="#404040" d="M297.1,91.5l-4.2-13.6h-28.2l-4.5,13.6h-23.5L269.9,0h17.4l33.3,91.5H297.1z M279.2,34.7L271,59.1h15.9
		L279.2,34.7z"/>
	<path fill="#404040" d="M352.1,62.9v28.7h-22.2V0h22.2v32.4L378.6,0h27.5L352.1,62.9z"/>
</g>
<g>
	<path fill="#999999" d="M99.6,141.9H85.6v-33.3H99c6.5,0,10.3,3.6,10.3,9.3c0,3.7-2.4,6.1-4.1,6.9c2,0.9,4.6,3,4.6,7.5
		C109.8,138.5,105.5,141.9,99.6,141.9z M98.5,114.4h-6.4v7.7h6.4c2.8,0,4.3-1.5,4.3-3.8S101.3,114.4,98.5,114.4z M98.9,127.9h-6.8
		v8.2h6.8c2.9,0,4.3-1.9,4.3-4.1C103.3,129.7,101.9,127.9,98.9,127.9z"/>
	<path fill="#999999" d="M139.7,141.9l-6.5-13.3h-4.7v13.3H122v-33.3h13c6.8,0,10.8,4.6,10.8,10.2c0,4.7-2.9,7.6-6.1,8.7l7.4,14.3
		H139.7z M134.6,114.4h-6.1v8.8h6.1c2.9,0,4.7-1.8,4.7-4.4C139.3,116.2,137.5,114.4,134.6,114.4z"/>
	<path fill="#999999" d="M158.2,141.9v-33.3h21.9v5.8h-15.4v7.8h13.1v5.8h-13.1v8.1h15.4v5.8H158.2z"/>
	<path fill="#999999" d="M220.4,141.9H215l-6.1-20.2l-6.1,20.2h-5.4l-8.9-33.3h6.8l5.1,21l6.1-21h4.9l6.1,21l5.2-21h6.8L220.4,141.9
		z"/>
	<path fill="#999999" d="M239.2,141.9v-33.3h6.5v33.3H239.2z"/>
	<path fill="#999999" d="M278.7,141.9l-13.2-20.4v20.4H259v-33.3h5.8L278,129v-20.4h6.5v33.3H278.7z"/>
	<path fill="#999999" d="M318.4,138.4c-2.8,2.9-5.8,3.8-9.4,3.8c-3.8,0-6.6-1.3-8.9-3.5c-3.3-3.3-3.4-7.1-3.4-13.4
		c0-6.4,0-10.1,3.4-13.4c2.3-2.2,5.1-3.5,8.9-3.5c7.8,0,11.6,5,12.5,10.7H315c-0.7-3.2-2.7-4.9-6-4.9c-1.8,0-3.2,0.7-4.2,1.8
		c-1.2,1.4-1.6,3-1.6,9.3c0,6.4,0.4,8,1.6,9.4c1,1.1,2.4,1.7,4.2,1.7c2,0,3.6-0.7,4.6-1.9c1.1-1.2,1.5-2.7,1.5-4.4v-1.2H309v-5.5
		h12.6v4.9C321.6,133,320.8,135.8,318.4,138.4z"/>
	<path fill="#999999" d="M105.3,176.1h-6.4v12.5h-6.5v-33.3h12.9c6.9,0,11,4.7,11,10.4S112.3,176.1,105.3,176.1z M105,161.1h-6.1
		v9.1h6.1c2.9,0,4.8-1.8,4.8-4.5S108,161.1,105,161.1z"/>
	<path fill="#999999" d="M145.1,188.6l-6.5-13.3h-4.7v13.3h-6.5v-33.3h13c6.8,0,10.8,4.6,10.8,10.2c0,4.7-2.9,7.6-6.1,8.7l7.4,14.3
		H145.1z M140,161.1h-6.1v8.8h6.1c2.9,0,4.7-1.8,4.7-4.4C144.7,163,142.9,161.1,140,161.1z"/>
	<path fill="#999999" d="M183.2,185.4c-2.2,2.2-5,3.5-8.9,3.5c-3.8,0-6.7-1.3-8.9-3.5c-3.3-3.3-3.4-7.1-3.4-13.4s0-10.1,3.4-13.4
		c2.2-2.2,5.1-3.5,8.9-3.5c3.8,0,6.6,1.3,8.9,3.5c3.3,3.3,3.4,7.1,3.4,13.4S186.5,182.1,183.2,185.4z M178.5,162.6
		c-0.9-1.1-2.4-1.8-4.2-1.8c-1.8,0-3.2,0.7-4.2,1.8c-1.2,1.4-1.6,3-1.6,9.3s0.4,7.9,1.6,9.3c1,1.1,2.4,1.8,4.2,1.8
		c1.8,0,3.2-0.7,4.2-1.8c1.2-1.4,1.6-2.9,1.6-9.3S179.7,164,178.5,162.6z"/>
	<path fill="#999999" d="M202,188.9c-3.6,0-6.1-0.9-8.6-3.4l4.3-4.3c1.1,1.1,2.1,1.9,4.3,1.9c3.2,0,5.2-1.9,5.2-5.7v-22.1h6.5v22.3
		C213.7,185,208.2,188.9,202,188.9z"/>
	<path fill="#999999" d="M226.7,188.6v-33.3h21.9v5.8h-15.4v7.8h13.1v5.8h-13.1v8.1h15.4v5.8H226.7z"/>
	<path fill="#999999" d="M271.8,188.9c-3.8,0-6.6-1.3-8.9-3.5c-3.3-3.3-3.4-7.1-3.4-13.4s0-10.1,3.4-13.4c2.3-2.2,5.1-3.5,8.9-3.5
		c6.2,0,11,3.6,12.2,10.5h-6.6c-0.7-2.7-2.3-4.7-5.6-4.7c-1.8,0-3.2,0.7-4.2,1.7c-1.2,1.4-1.6,3-1.6,9.4s0.4,8,1.6,9.4
		c0.9,1.1,2.4,1.7,4.2,1.7c3.2,0,5-2,5.6-4.7h6.6C282.7,185.4,277.9,188.9,271.8,188.9z"/>
	<path fill="#999999" d="M307.4,161.1v27.5h-6.5v-27.5h-8.7v-5.8h23.9v5.8H307.4z"/>
</g>
<polygon fill="#E47125" points="380.3,44.7 412.5,99.2 386.3,99.2 365.2,61.7 "/>
</svg>
