
<svg version="1.1" id="Layer_1" xmlns="http://www.w3.org/2000/svg" xmlns:xlink="http://www.w3.org/1999/xlink" x="0px" y="0px"
	 viewBox="0 0 94.5 79.8" enable-background="new 0 0 94.5 79.8" xml:space="preserve">
<path fill="#888888" d="M77.9,5H16.6c-2.4,0-4.4,2-4.4,4.4v61.2c0,2.4,2,4.4,4.4,4.4h61.2c2.4,0,4.4-2,4.4-4.4V9.4
	C82.3,7,80.3,5,77.9,5z M38.5,40c0,0,0.7-8.7,8.7-8.7c8.1,0,8.8,8.7,8.8,8.7s0.3,8.8-8.8,8.8C38.2,48.8,38.5,40,38.5,40z M73.5,66.3
	H21V35.6h8.7h0.6C30,37,29.8,38.5,29.8,40c0,9.7,7.8,17.5,17.5,17.5c9.7,0,17.5-7.8,17.5-17.5c0-1.5-0.3-3-0.6-4.4h0.6h8.8V66.3z
	 M73.5,26.9H60.4V13.8h13.1V26.9z"/>
</svg>
