
<svg version="1.1" id="Layer_1" xmlns="http://www.w3.org/2000/svg" xmlns:xlink="http://www.w3.org/1999/xlink" x="0px" y="0px"
	 viewBox="0 0 94.5 79.8" enable-background="new 0 0 94.5 79.8" xml:space="preserve">
<polygon id="Plus" fill="#888888" points="94.5,16 78.5,16 78.5,0 74.5,0 74.5,16 58.5,16 58.5,20 74.5,20 74.5,36 78.5,36 78.5,20 
	94.5,20 "/>
<path id="g" fill="#888888" d="M41,46c-2.2-1.6-6.5-5.4-6.5-7.7c0-2.7,0.8-4,4.7-7.1c4.1-3.2,7-7.7,7-12.9c0-6.2-2.8-12.3-8-14.3
	h7.8l5.5-4c0,0-18.5,0-24.7,0C15.8,0,5.3,8.4,5.3,18.1c0,9.9,7.6,18,18.8,18c0.8,0,1.5,0,2.3-0.1c-0.7,1.4-1.3,3-1.3,4.6
	c0,2.8,1.5,5,3.4,6.8c-1.4,0-2.8,0-4.3,0C10.6,47.5,0,56.3,0,65.3c0,8.9,11.6,14.5,25.3,14.5C41,79.8,49.6,71,49.6,62
	C49.6,54.9,47.5,50.6,41,46z M27.8,33.6c-6.4-0.2-12.4-7.1-13.5-15.5c-1.1-8.4,3.2-14.8,9.5-14.6c6.4,0.2,12.4,6.9,13.5,15.3
	C38.4,27.1,34.1,33.8,27.8,33.6z M25.3,75.9c-9.5,0-16.3-6-16.3-13.2c0-7.1,8.5-13,18-12.9c2.2,0,4.3,0.4,6.2,1
	c5.2,3.6,8.8,5.6,9.9,9.7c0.2,0.8,0.3,1.7,0.3,2.5C43.3,70.3,38.6,75.9,25.3,75.9z"/>
</svg>
