
<svg version="1.1" id="Layer_1" xmlns="http://www.w3.org/2000/svg" xmlns:xlink="http://www.w3.org/1999/xlink" x="0px" y="0px"
	 viewBox="0 0 94.5 79.8" enable-background="new 0 0 94.5 79.8" xml:space="preserve">
<g>
	<path fill="#888888" d="M36.1,3.1c-2.2,1.4-2.8,3-2.8,3.5c0,0.5,1.1,0.4,1.3,0.7c0.3,0.4-0.1,1,0.2,1.3c0.2,0.3,0.7,0.3,1.1,0.9
		c0.4,0.7,10.9,21.5,12.5,24c0.7,1.8,1.2,8.4,1.8,9.3c0.5,0.9,23.4,32.9,24.2,33.9c1.8,2.5,7.7,1.8,12.2-1.4
		c4.8-3.3,8.3-8.7,6.6-11.7c-0.6-1.1-23.4-33.2-24.1-34c-0.7-0.8-6.7-3.5-8.2-4.7c-1.8-2.3-18-19.1-18.6-19.7
		c-0.5-0.6-0.4-1-0.5-1.3c-0.2-0.3-0.9-0.2-1.1-0.6C40.2,3,40.5,1.9,40,1.8C38.5,1.4,36.1,3.1,36.1,3.1z"/>
	<path fill="#888888" d="M58.6,3.3c-2.1-1.6-3.8-1.7-4.2-1.5c-0.5,0.2,0,1.1-0.3,1.5c-0.3,0.4-1,0.3-1.1,0.6c-0.2,0.3,0,0.8-0.5,1.3
		C51.9,5.8,35.8,22.6,34,24.9c-1.5,1.2-7.5,4-8.2,4.8C25.2,30.5,2.8,62.7,2,63.7c-1.7,2.5,0.9,7.8,5.4,11c4.7,3.4,11,4.9,13.2,2.3
		c0.8-1,23.4-33.1,23.9-34c0.5-0.9,1-7.5,1.7-9.3c1.5-2.5,11.9-23.3,12.3-24c0.4-0.7,0.9-0.7,1.1-0.9c0.2-0.3-0.1-0.9,0.1-1.3
		c0.3-0.4,1.4-0.5,1.3-1C61,5,58.6,3.3,58.6,3.3z"/>
</g>
</svg>
